<?xml version="1.0" encoding="utf-8"?>
<!-- Generator: Adobe Illustrator 26.0.2, SVG Export Plug-In . SVG Version: 6.00 Build 0)  -->
<svg version="1.1" xmlns="http://www.w3.org/2000/svg" xmlns:xlink="http://www.w3.org/1999/xlink" x="0px" y="0px"
	 viewBox="0 0 497.88 204.13" style="enable-background:new 0 0 497.88 204.13;" xml:space="preserve">
<style type="text/css">
	.st0{display:none;}
	.st1{display:inline;fill:#F499C1;}
	.st2{display:inline;fill:#B89BC9;}
	.st3{display:inline;fill:#8ACA88;}
</style>
<g id="fullerjan" class="st0">
	<rect x="109.54" y="-194.89" class="st1" width="278.96" height="170.25"/>
	<rect x="109.54" y="12.28" class="st2" width="278.96" height="170.25"/>
	<rect x="109.54" y="228.68" class="st3" width="278.96" height="170.25"/>
</g>
<g id="j2">
	<g>
		<g>
			<path d="M136.5,30.64v94.9c0,8.5-0.38,15.89-1.11,21.96c-0.79,6.47-2.57,13.09-5.31,19.66c-4.78,11.55-12.76,20.68-23.73,27.12
				c-10.67,6.26-23.67,9.44-38.64,9.44c-13.41,0-24.89-2.21-34.12-6.58c-9.66-4.55-17.51-11.96-23.34-21.99
				c-2.98-5.22-5.4-11.21-7.22-17.85c-1.83-6.66-2.75-13.15-2.75-19.28c0-8.03,2.46-14.43,7.31-19.03
				c4.74-4.49,10.74-6.77,17.86-6.77c9.01,0,14.21,3.76,16.99,6.91c3.42,3.87,5.87,9.32,7.5,16.66c1.32,5.97,2.63,10.73,3.89,14.15
				c0.92,2.47,2.43,4.55,4.64,6.37c2.25,1.86,6.13,2.25,8.99,2.25c4.89,0,16.34,0,16.34-27.71V30.64c0-9.38,2.31-16.77,6.87-21.96
				c4.76-5.41,11.43-8.28,19.29-8.28c7.91,0,14.65,2.84,19.48,8.21C134.12,13.81,136.5,21.23,136.5,30.64z"/>
		</g>
	</g>
</g>
<g id="a2">
	<g>
		<g>
			<path d="M318.18,156.51l-47.3-116.8c-2.18-5.76-4.05-10.52-5.54-14.15c-1.65-4.01-3.71-7.82-6.13-11.32
				c-2.78-4.03-6.45-7.36-10.92-9.9c-4.63-2.61-10.25-3.94-16.73-3.94c-6.4,0-11.98,1.33-16.61,3.95
				c-4.49,2.54-8.19,5.94-10.98,10.1c-2.41,3.6-4.68,8.09-6.73,13.34l-0.72,1.83c-1.55,3.97-2.9,7.42-4.03,10.32l-46.31,117.57
				c-2,4.94-3.41,8.74-4.3,11.6c-1.06,3.4-1.6,6.78-1.6,10.05c0,6.44,2.7,12.42,7.79,17.28c5.07,4.83,11.04,7.28,17.76,7.28
				c10.03,0,15.39-4.32,18.12-7.95c2.92-3.87,6.02-10.34,9.76-20.37l6.71-18.02h62.57l6.68,17.58c0.03,0.07,0.06,0.14,0.08,0.2
				c1.18,2.87,2.6,6.19,4.21,9.87c1.91,4.34,3.73,7.58,5.56,9.9c2.12,2.69,4.78,4.84,7.89,6.4c3.17,1.58,6.87,2.39,10.99,2.39
				c7.02,0,13.35-2.63,18.33-7.6c5.03-5.04,7.59-10.83,7.59-17.21C324.32,173.69,322.36,166.55,318.18,156.51z M231.38,70.58
				l15.8,43.25h-31.31L231.38,70.58z"/>
		</g>
	</g>
</g>
<g id="n2">
	<g>
		<g>
			<path d="M497.6,29.41v142.46c0,9.83-2.28,17.56-6.78,22.99c-4.87,5.88-11.93,8.86-20.99,8.86c-4.19,0-8.09-0.64-11.59-1.89
				c-3.6-1.3-6.98-3.34-10.04-6.08c-2.73-2.43-5.29-5.3-7.6-8.53c-2.05-2.86-4.08-5.75-6.03-8.6l-0.1-0.16l-54.12-82.97v79.22
				c0,8.94-2.32,16.03-6.9,21.07c-4.71,5.19-11.03,7.94-18.28,7.94c-7.47,0-13.87-2.81-18.5-8.12c-4.43-5.06-6.67-12.09-6.67-20.89
				V34.97c0-7,0.82-12.52,2.52-16.87l0.09-0.2c2.19-5.2,5.82-9.47,10.8-12.69c4.92-3.19,10.34-4.81,16.09-4.81
				c4.42,0,8.39,0.79,11.78,2.33c3.24,1.48,6.12,3.5,8.58,6.01c2.17,2.22,4.28,4.94,6.45,8.31c1.85,2.88,3.76,5.88,5.73,9
				l55.83,84.49V29.41c0-8.93,2.17-15.99,6.44-20.97c4.52-5.26,10.83-8.04,18.24-8.04c7.56,0,13.96,2.77,18.52,8
				C495.4,13.39,497.6,20.45,497.6,29.41z"/>
		</g>
	</g>
</g>
</svg>
